<svg width="39" height="78" viewBox="0 0 39 78" fill="none" xmlns="http://www.w3.org/2000/svg">
<path d="M0.000286102 74.7495C0.000286102 76.5451 1.45465 77.9994 3.25026 77.9994H35.75C37.5456 77.9994 39 76.5451 39 74.7495V3.24998C39 1.45436 37.5456 0 35.75 0H3.25026C1.45465 0 0.000286102 1.45436 0.000286102 3.24998V74.7495Z" fill="#C1272D"/>
<path d="M19.4985 0H35.75C37.5456 0 39 1.45599 39 3.24998V74.7495C39 76.5434 37.5456 77.9994 35.75 77.9994H19.5001L19.4985 0Z" fill="#EE3E44"/>
<path d="M34.125 31.6873C34.125 35.7254 30.8507 38.9997 26.8126 38.9997C22.7745 38.9997 19.5001 35.7254 19.5001 31.6873V15.4374C19.5001 14.0919 18.4081 12.9999 17.0627 12.9999C15.7172 12.9999 14.6252 14.0919 14.6252 15.4374V21.9373C14.6252 24.1814 12.8068 25.9998 10.5627 25.9998C8.3186 25.9998 6.50024 24.1814 6.50024 21.9373V0H35.75C37.544 0 39 1.45599 39 3.24998V27.6248H34.125V31.6873Z" fill="#FA5B61"/>
<path d="M19.4985 0H35.75C37.544 0 39 1.45599 39 3.24998V27.6248H34.125V31.6873C34.125 35.7254 30.8507 38.9997 26.8126 38.9997C22.7745 38.9997 19.5001 35.7254 19.5001 31.6873V15.4374C19.5001 15.4341 19.5001 15.4309 19.5001 15.4276L19.4985 0Z" fill="#FF8388"/>
</svg>
