<svg width="33" height="52" viewBox="0 0 33 52" fill="none" xmlns="http://www.w3.org/2000/svg">
<path d="M33 3.24998C33 1.45436 31.5456 0 29.75 0H3.75021C1.9546 0 0.500237 1.45436 0.500237 3.24998V48.7496C0.500237 50.5453 1.9546 51.9996 3.75021 51.9996H29.75C31.5456 51.9996 33 50.5453 33 48.7496V3.24998Z" fill="#B04BFF"/>
<path d="M16.7501 0H29.75C31.5456 0 33 1.45599 33 3.24998V48.7496C33 50.5436 31.5456 51.9996 29.75 51.9996H16.7501V0Z" fill="#C57AFF"/>
<path d="M20.0001 9.74993C20.0001 7.95594 18.5441 6.49995 16.7501 6.49995C14.9561 6.49995 13.5001 7.95594 13.5001 9.74993C13.5001 11.5439 12.0442 12.9999 10.2502 12.9999C8.45618 12.9999 7.00019 11.5439 7.00019 9.74993V0H29.75C31.544 0 33 1.45599 33 3.24998V24.3748H20.0001V9.74993Z" fill="#C274FF"/>
<path d="M16.7501 0H29.75C31.544 0 33 1.45599 33 3.24998V25.9998H20.0001V9.74993C20.0001 7.95594 18.5441 6.49995 16.7501 6.49995V0Z" fill="#C58BFF"/>
</svg>
