<svg width="33" height="52" viewBox="0 0 33 52" fill="none" xmlns="http://www.w3.org/2000/svg">
<path d="M0 3.24998C0 1.45436 1.45436 0 3.24998 0H29.2498C31.0454 0 32.4998 1.45436 32.4998 3.24998V48.7496C32.4998 50.5453 31.0454 51.9996 29.2498 51.9996H3.24998C1.45436 51.9996 0 50.5453 0 48.7496V3.24998Z" fill="#0099BA"/>
<path d="M16.2499 0H3.24998C1.45436 0 0 1.45599 0 3.24998V48.7496C0 50.5436 1.45436 51.9996 3.24998 51.9996H16.2499V0Z" fill="#00B2D8"/>
<path d="M12.9999 9.74993C12.9999 7.95594 14.4559 6.49995 16.2499 6.49995C18.0439 6.49995 19.4999 7.95594 19.4999 9.74993C19.4999 11.5439 20.9558 12.9999 22.7498 12.9999C24.5438 12.9999 25.9998 11.5439 25.9998 9.74993V0H3.24998C1.45599 0 0 1.45599 0 3.24998V24.3748H12.9999V9.74993Z" fill="#00D1FF"/>
<path d="M16.2499 0H3.24998C1.45599 0 0 1.45599 0 3.24998V25.9998H12.9999V9.74993C12.9999 7.95594 14.4559 6.49995 16.2499 6.49995V0Z" fill="#6FDAF1"/>
</svg>
