<svg width="229" height="107" viewBox="0 0 229 107" fill="none" xmlns="http://www.w3.org/2000/svg">
<g id="cat">
<g id="vector">
<path d="M69.6095 5.31201C70.982 7.98637 75.8372 17.7496 75.2819 20.9885C74.2112 27.2341 69.7104 31.2503 73.9903 34.1198C83.4621 40.4702 109.911 37.7623 130.605 47.0358C145.08 53.5221 159.021 67.2709 165.263 66.6251C169.003 66.2383 173.292 65.8442 176.673 67.7014C187.867 73.8515 187.457 83.0858 197.338 84.9078C212.515 87.7063 226.83 91.3808 227.691 100.853C227.824 102.315 227.567 103.803 226.184 104.297C224.677 104.835 218.912 100.564 213.483 99.3457C208.209 98.1617 200.094 96.7292 191.957 94.1793C177.834 89.7539 169.354 74.8053 159.451 76.0969C147.775 77.6199 143.414 93.3182 137.063 95.9014C124.629 100.96 101.114 97.9464 82.8162 100.207C74.7681 101.201 67.4247 107.095 62.7964 106.449C59.9763 106.056 58.2458 103.236 59.0293 100.207C59.8335 97.0972 65.9178 95.6063 65.9178 95.6063C65.9178 95.6063 61.2274 96.14 59.6751 94.1793C58.1356 92.235 57.6664 89.4987 59.6751 88.0442C62.7964 85.7839 72.4834 86.322 77.5422 85.6762C79.3477 85.4457 81.417 82.7531 81.417 82.7531C77.4075 81.057 68.3034 77.3318 61.3972 75.4511C49.5211 72.2169 41.8689 74.2781 29.8606 71.5763C21.2499 69.6389 14.7919 72.7602 6.61175 73.9442C1.39212 74.6997 0.341503 71.7603 1.33772 68.993C2.30642 66.3022 8.01541 63.9658 11.7782 62.535C12.7664 62.1593 13.8605 61.9119 15.0072 61.7535C15.0072 61.7535 17.2813 58.4375 20.0659 56.6152C22.8506 54.7929 27.1698 54.4625 27.1698 54.4625C26.6875 52.2251 27.4329 49.1897 28.1384 47.0358C29.9903 41.3822 39.3323 38.5328 39.3323 36.703C39.3323 32.7615 40.1934 28.6305 40.1934 28.6305C40.1934 28.6305 36.9814 23.0531 37.7178 18.9435C38.4365 14.9328 43.3415 10.4178 44.166 9.6829C44.2433 9.61395 44.2917 9.52293 44.3067 9.4204L45.5257 1.07486C45.582 0.688982 46.0814 0.570851 46.3047 0.890565L48.0506 3.39045L50.2442 6.53121C50.3487 6.68084 50.5336 6.7493 50.7105 6.70453C51.8188 6.42412 55.8364 5.49477 58.4911 6.02747C61.1852 6.56809 64.4979 9.02034 65.6269 9.9054C65.8373 10.0703 66.1477 10.0132 66.2813 9.78161L68.8655 5.30238C69.0346 5.0092 69.4549 5.01088 69.6095 5.31201Z" fill="#121212"/>
<path d="M40.1934 28.6305C40.1934 28.6305 39.3323 32.7615 39.3323 36.703C39.3323 38.5328 29.9903 41.3822 28.1384 47.0358C27.4329 49.1897 26.6875 52.2251 27.1698 54.4625M40.1934 28.6305L41.485 30.3526M40.1934 28.6305C40.1934 28.6305 36.9814 23.0531 37.7178 18.9435C38.4365 14.9328 43.3415 10.4178 44.166 9.6829C44.2433 9.61395 44.2917 9.52293 44.3067 9.4204L45.5257 1.07486C45.582 0.688982 46.0814 0.570851 46.3047 0.890565L48.0506 3.39045L50.2442 6.53121C50.3487 6.68084 50.5336 6.7493 50.7105 6.70453C51.8188 6.42412 55.8364 5.49477 58.4911 6.02747C61.1852 6.56809 64.4979 9.02034 65.6269 9.9054C65.8373 10.0703 66.1477 10.0132 66.2813 9.78161L68.8655 5.30238C69.0346 5.0092 69.4549 5.01088 69.6095 5.31201C70.982 7.98637 75.8372 17.7496 75.2819 20.9885C74.2112 27.2341 69.7104 31.2503 73.9903 34.1198C83.462 40.4702 109.911 37.7623 130.605 47.0358C145.08 53.5221 159.021 67.2709 165.263 66.6251C169.003 66.2383 173.292 65.8442 176.673 67.7014C187.867 73.8515 187.457 83.0858 197.338 84.9078C212.515 87.7063 226.83 91.3808 227.691 100.853C227.824 102.315 227.567 103.803 226.184 104.297C224.677 104.835 218.912 100.564 213.483 99.3457C208.209 98.1617 200.094 96.7292 191.957 94.1793C177.834 89.7539 169.354 74.8053 159.451 76.0969C147.775 77.6199 143.414 93.3182 137.063 95.9014C124.629 100.96 101.114 97.9465 82.8162 100.207C74.7681 101.201 67.4247 107.095 62.7964 106.449C59.9763 106.056 58.2458 103.236 59.0293 100.207C59.8335 97.0972 65.9178 95.6063 65.9178 95.6063M81.417 82.7531C82.4908 83.2074 83.1991 83.5161 83.4021 83.6049C83.4421 83.6224 83.4813 83.6333 83.5247 83.6385C84.2098 83.7198 90.2977 84.488 91.2117 86.2144C92.2441 88.1646 90.4055 89.5037 88.6285 89.8739C83.462 90.9503 78.8338 90.9503 72.0529 92.2419C69.3686 92.7532 65.9178 95.6063 65.9178 95.6063M81.417 82.7531C77.4075 81.057 68.3034 77.3318 61.3972 75.4511C49.5211 72.2168 41.8689 74.2781 29.8606 71.5763C21.2499 69.6389 14.7919 72.7602 6.61175 73.9442C1.39212 74.6997 0.341503 71.7603 1.33772 68.9931C2.30642 66.3022 8.01541 63.9658 11.7782 62.535C12.7664 62.1593 13.8605 61.9119 15.0072 61.7535M81.417 82.7531C81.417 82.7531 79.3477 85.4457 77.5422 85.6762C72.4834 86.322 62.7964 85.7839 59.6751 88.0442C57.6664 89.4987 58.1356 92.235 59.6751 94.1793C61.2274 96.14 65.9178 95.6063 65.9178 95.6063M27.1698 54.4625C27.8057 57.4132 29.8606 59.4029 29.8606 60.3824C29.8606 62.8564 21.5728 60.8464 15.0072 61.7535M27.1698 54.4625C27.1698 54.4625 22.8506 54.7929 20.0659 56.6152C17.2813 58.4375 15.0072 61.7535 15.0072 61.7535" stroke="#5A5A5A" stroke-width="0.861068" stroke-linecap="round" stroke-linejoin="round"/>
</g>
<g id="eye">
<path id="eclipse" d="M50.8831 19.5857C50.8831 20.3352 50.2711 21.0273 49.5857 21.0273C48.9003 21.0273 48.2883 20.3352 48.2883 19.5857C48.2883 18.8692 48.8692 18.2883 49.5857 18.2883C50.3022 18.2883 50.8831 18.8692 50.8831 19.5857Z" fill="black" stroke="#414141" stroke-width="0.576619" stroke-linecap="round" stroke-linejoin="round"/>
<path id="eclipse_2" d="M50.5978 19.0106C50.5978 19.2494 50.2751 19.4431 49.877 19.4431C49.479 19.4431 49.1562 19.2494 49.1562 19.0106C49.1562 18.7717 49.479 18.5781 49.877 18.5781C50.2751 18.5781 50.5978 18.7717 50.5978 19.0106Z" fill="black"/>
</g>
<g id="eye_2">
<path id="eclipse_3" d="M65.1515 22.9017C65.1515 23.2924 64.9599 23.7307 64.6475 24.0755C64.3343 24.4209 63.9379 24.6316 63.5658 24.6316C63.1994 24.6316 62.8422 24.4266 62.5663 24.0872C62.2907 23.7481 62.1242 23.3065 62.1242 22.9017C62.1242 22.1056 62.7697 21.4602 63.5658 21.4602C64.3923 21.4602 65.1515 22.1343 65.1515 22.9017Z" fill="black" stroke="#414141" stroke-width="0.576619" stroke-linecap="round" stroke-linejoin="round"/>
<ellipse id="eclipse_4" cx="63.713" cy="22.1786" rx="0.720774" ry="0.432464" fill="black"/>
</g>
<g id="nose">
<path id="vector_2" d="M54.6338 23.8001C54.6338 23.4011 53.6364 22.9023 53.3371 22.9023C53.0379 22.9023 52.0791 23.5008 52.0404 23.8001C52.0017 24.0993 52.8383 24.9262 53.1376 24.9971C53.4368 25.068 54.6338 24.1991 54.6338 23.8001Z" fill="black" stroke="#414141" stroke-width="0.576619" stroke-linecap="round" stroke-linejoin="round"/>
<path id="vector_3" d="M52.3359 23.8016C52.3359 23.5786 53.3334 23.2031 53.3334 23.2031C53.3334 23.2031 52.9016 23.6999 52.9016 23.8016C52.9016 24.1009 53.3334 24.7779 53.3334 24.7779C53.3334 24.7779 52.3359 24.0011 52.3359 23.8016Z" fill="black"/>
</g>
</g>
</svg>
