<svg width="341" height="480" viewBox="0 0 341 480" fill="none" xmlns="http://www.w3.org/2000/svg">
<path d="M153.983 477.813C147.406 421.414 148.704 364.102 157.826 308.059C170.529 307.99 183.233 307.921 195.936 307.852C189.853 362.346 190.596 423.501 198.143 477.813" fill="black"/>
<path d="M154.018 474.341C153.963 474.206 153.908 474.072 153.851 473.932C153.795 474.315 153.925 475.082 153.907 475.561C153.853 475.665 153.807 475.326 153.767 475.093C153.427 473.13 153.149 471.045 152.867 468.974C152.46 466.066 152.16 463.146 151.778 460.256C151.351 457.097 151.048 453.878 150.718 450.678C150.493 448.432 150.232 446.192 150.065 443.933C149.844 441.154 149.623 438.392 149.402 435.62C149.211 432.673 149.069 429.7 148.923 426.727C148.869 425.647 148.83 424.56 148.81 423.478C148.727 419.465 148.553 415.454 148.543 411.44L148.504 405.419C148.497 404.731 148.49 404.048 148.482 403.354C148.474 402.208 148.466 401.075 148.532 399.932C148.548 399.665 148.55 399.352 148.545 399.078C148.506 396.856 148.576 394.606 148.6 392.372C148.653 390.363 148.706 388.36 148.759 386.355C148.822 383.827 148.902 381.3 149.028 378.776L149.322 371.73L149.56 367.945C149.775 364.738 149.905 361.523 150.192 358.32C150.53 354.255 150.834 350.187 151.27 346.131C151.916 339.378 152.701 332.639 153.581 325.911L154.065 322.332C154.126 321.878 154.186 321.425 154.247 320.967C154.555 318.119 155.05 315.283 155.462 312.441C155.684 310.893 155.907 309.339 156.13 307.783C156.248 306.956 156.951 306.357 157.761 306.344L157.814 306.343L159.414 306.316C160.041 306.309 160.67 306.303 161.294 306.297C163.246 306.317 165.179 306.285 167.129 306.253C169.425 306.233 171.714 306.213 174.005 306.193L182.607 306.135C183.974 306.115 185.355 306.095 186.721 306.075L195.923 306.016C196.936 306.009 197.762 306.825 197.769 307.838C197.77 307.902 197.766 307.966 197.76 308.029L197.758 308.055L197.514 310.512L196.813 317.757L196.232 325.011L196.178 325.695C195.914 328.653 195.742 331.62 195.542 334.584C195.333 337.547 195.152 340.513 195.016 343.482C194.866 346.561 194.661 349.639 194.568 352.722L194.274 360.856L194.094 368.992C194.012 371.732 194.008 374.474 193.966 377.215C193.897 381.098 193.912 384.984 193.927 388.867C193.922 390.059 193.917 391.262 193.912 392.455L194.012 398.271C194.049 400.602 194.086 402.901 194.123 405.288C194.132 405.576 194.14 405.859 194.148 406.143L194.513 416.082C194.69 419.731 194.792 423.382 195 427.028L195.078 428.397C195.375 433.535 195.672 438.678 195.974 443.896C196.015 444.627 196.046 445.359 196.063 446.062C196.145 448.409 196.338 450.839 196.511 453.264C196.66 455.407 196.808 457.549 196.964 459.798C197.066 461.252 197.166 462.668 197.267 464.11C197.388 465.804 197.508 467.483 197.633 469.218C197.716 470.348 197.756 471.411 197.813 472.499C197.821 472.65 197.829 472.837 197.815 472.903C197.715 473.389 197.744 474.278 197.767 475.154C197.771 475.296 197.761 475.405 197.755 475.523C197.72 476.257 197.726 477.037 197.772 477.864C197.596 476.949 197.451 476.045 197.247 475.474C197.194 475.327 197.131 474.848 197.086 474.515C196.991 473.811 196.889 473.208 196.733 472.665C196.565 472.082 196.439 471.294 196.322 470.472C196.01 468.367 195.698 466.335 195.328 464.447C195.241 464.013 195.155 463.487 195.098 462.999C194.894 461.236 194.691 459.486 194.484 457.704C194.32 456.009 194.131 454.278 193.92 452.598C193.637 450.229 193.332 447.872 193.143 445.455C192.96 443.346 192.776 441.228 192.593 439.116C192.534 438.429 192.475 437.746 192.416 437.058C192.36 436.517 192.305 435.977 192.245 435.392C192.123 434.465 192.046 433.516 191.981 432.536C191.909 431.456 191.852 430.361 191.716 429.326C191.703 429.221 191.691 429.098 191.685 428.989C191.566 426.711 191.316 424.573 191.151 422.387C191.046 421.084 191.011 419.768 190.936 418.459C190.907 417.888 190.877 417.321 190.848 416.746C190.667 414.415 190.599 412.062 190.475 409.725C190.159 404.106 190.143 398.471 189.995 392.847C189.986 389.913 189.977 386.999 189.967 384.065L189.962 379.588C190.011 371.599 190.15 363.607 190.476 355.623C190.63 350.91 190.891 346.203 191.149 341.493C191.274 338.74 191.468 335.991 191.647 333.24C191.904 329.05 192.281 324.869 192.643 320.687C192.934 316.968 193.385 313.264 193.749 309.551L193.942 307.629L195.945 309.856C194.523 309.87 193.101 309.885 191.704 309.864C188.263 309.816 184.86 309.939 181.436 309.933L175.246 309.978C173.191 310.004 171.131 310.029 169.078 310.054L158.265 310.119L157.835 310.122L159.86 308.39L159.515 310.676C158.924 314.512 158.26 318.338 157.747 322.186C157.183 326.137 156.602 330.086 156.139 334.051C155.788 336.939 155.41 339.827 155.127 342.723C154.772 346.244 154.351 349.768 154.044 353.283C153.842 355.577 153.644 357.834 153.444 360.108L152.953 366.768L152.817 368.817C152.645 371.267 152.529 373.72 152.402 376.172C152.283 378.625 152.12 381.076 152.046 383.532C152 384.955 151.954 386.379 151.909 387.806L151.735 392.596L151.631 398.426L151.541 403.908L151.54 409.392C151.521 412.823 151.583 416.253 151.66 419.685C151.67 420.591 151.679 421.507 151.689 422.414C151.705 423.035 151.722 423.653 151.738 424.278C151.799 425.605 151.855 426.887 151.78 428.091C151.763 428.369 151.765 428.736 151.775 429.065C151.817 430.6 151.858 432.106 151.901 433.68C151.91 434.625 151.976 435.611 152.028 436.575C152.139 439.023 152.249 441.465 152.36 443.927C152.434 446.369 152.643 448.817 152.733 451.247C152.786 452.515 152.91 453.861 153.016 455.165C153.128 456.701 153.317 458.225 153.469 459.757C153.529 460.332 153.576 460.915 153.534 461.339C153.5 461.681 153.535 462.126 153.571 462.586L153.822 465.821L153.898 466.673C154.106 468.317 154.268 469.957 154.423 471.608C154.529 472.71 154.593 473.737 154.627 474.741C154.658 475.585 154.689 476.414 154.719 477.259C154.724 477.404 154.712 477.512 154.705 477.728C154.56 477.179 154.482 476.502 154.392 475.875C154.306 475.27 154.221 474.669 154.133 474.052C154.135 474.15 154.137 474.245 154.139 474.325C154.151 474.547 154.169 474.809 154.107 474.704C154.08 474.657 154.046 474.459 154.015 474.329L154.008 474.197L154.019 474.341L154.018 474.341Z" fill="black"/>
<path d="M112.315 478.34C112.374 478.3 112.434 478.259 112.496 478.218C112.336 478.122 112.004 478.168 111.802 478.099C111.76 478.034 111.906 478.024 112.007 478.009C112.856 477.882 113.753 477.829 114.644 477.77C115.896 477.687 117.148 477.607 118.39 477.499C119.748 477.381 121.126 477.297 122.496 477.199C123.458 477.131 124.418 477.06 125.383 477C126.565 476.927 127.752 476.866 128.935 476.797C130.192 476.724 131.46 476.69 132.728 476.659C133.188 476.647 133.651 476.652 134.112 476.646C135.822 476.625 137.53 476.601 139.24 476.582C140.094 476.572 140.949 476.57 141.804 476.562C142.097 476.56 142.393 476.56 142.683 476.546C143.17 476.521 143.653 476.497 144.14 476.548C144.253 476.56 144.387 476.558 144.504 476.549C145.449 476.476 146.407 476.524 147.359 476.502C148.211 476.483 149.067 476.481 149.921 476.474C150.998 476.464 152.074 476.461 153.15 476.448C154.151 476.436 155.151 476.413 156.152 476.399C156.689 476.392 157.228 476.398 157.766 476.393C159.135 476.379 160.503 476.355 161.872 476.348C163.608 476.338 165.344 476.343 167.08 476.34C169.968 476.334 172.855 476.326 175.743 476.319C176.256 476.318 176.768 476.318 177.28 476.316C177.476 476.316 177.674 476.322 177.867 476.313C179.085 476.257 180.31 476.278 181.532 476.263C182.428 476.252 183.322 476.218 184.217 476.196C184.484 476.189 184.756 476.178 185.02 476.187C185.852 476.218 186.678 476.197 187.51 476.175C188.484 476.149 189.466 476.157 190.444 476.153C191.667 476.148 192.891 476.15 194.115 476.141C194.7 476.137 195.285 476.103 195.871 476.104C197.532 476.105 199.194 476.103 200.854 476.085C202.932 476.064 205.008 476.02 207.085 475.985C207.182 475.984 207.28 475.981 207.378 475.98C209.921 475.956 212.464 475.93 215.008 475.91C216.327 475.9 217.648 475.904 218.967 475.898C221.29 475.886 223.611 475.867 225.933 475.86C227.107 475.856 228.28 475.871 229.453 475.877C231.115 475.887 232.778 475.894 234.439 475.907C234.951 475.911 235.462 475.936 235.974 475.941C236.804 475.949 237.634 475.945 238.464 475.952C239.465 475.96 240.47 475.948 241.466 476.006C241.586 476.013 241.711 476.011 241.833 476.011C243.251 476.013 244.67 476.003 246.088 476.018C247.651 476.035 249.213 476.076 250.776 476.106C250.971 476.109 251.166 476.115 251.362 476.117C253.589 476.14 255.8 476.231 258.003 476.354C258.316 476.371 258.629 476.4 258.929 476.439C259.932 476.569 260.974 476.62 262.014 476.678C262.958 476.731 263.894 476.797 264.812 476.9C265.421 476.969 266.044 477.021 266.658 477.084C267.389 477.16 268.126 477.231 268.843 477.324C269.326 477.387 269.779 477.485 270.243 477.568C270.307 477.58 270.386 477.597 270.414 477.619C270.614 477.781 270.992 477.867 271.364 477.957C271.424 477.972 271.469 477.996 271.519 478.016C271.828 478.146 272.158 478.241 272.509 478.302C272.113 478.358 271.722 478.385 271.469 478.514C271.404 478.548 271.198 478.549 271.055 478.55C270.752 478.553 270.492 478.576 270.254 478.661C269.998 478.752 269.658 478.776 269.304 478.786C268.398 478.811 267.522 478.886 266.705 479.048C266.517 479.086 266.29 479.113 266.081 479.114C265.325 479.118 264.573 479.145 263.811 479.13C263.085 479.116 262.344 479.148 261.623 479.193C260.607 479.256 259.595 479.304 258.563 479.301C257.66 479.298 256.756 479.326 255.853 479.339C255.56 479.343 255.265 479.341 254.973 479.351C254.733 479.359 254.48 479.364 254.26 479.399C253.863 479.46 253.458 479.474 253.039 479.476C252.579 479.478 252.112 479.464 251.668 479.531C251.623 479.538 251.571 479.542 251.524 479.54C250.553 479.503 249.638 479.623 248.705 479.69C248.149 479.73 247.589 479.7 247.031 479.709C246.788 479.713 246.541 479.701 246.3 479.712C245.306 479.76 244.304 479.772 243.308 479.807C240.913 479.892 238.516 479.828 236.121 479.86C234.873 479.877 233.629 479.864 232.383 479.841C231.75 479.829 231.113 479.857 230.478 479.858C227.077 479.865 223.676 479.869 220.275 479.873C218.269 479.876 216.262 479.872 214.255 479.88C213.083 479.885 211.91 479.916 210.737 479.923C208.951 479.932 207.165 479.932 205.38 479.933C203.793 479.934 202.206 479.93 200.62 479.929C199.742 479.928 198.853 479.96 197.988 479.92C196.52 479.852 195.067 479.957 193.606 479.932C192.728 479.917 191.845 479.934 190.965 479.944C190.087 479.954 189.21 479.982 188.332 479.987C186.795 479.995 185.256 479.99 183.718 479.992C183.327 479.993 182.935 480.003 182.544 479.999C180.882 479.983 179.22 479.966 177.558 479.944C175.849 479.921 174.141 479.89 172.432 479.868C171.187 479.852 169.94 479.848 168.694 479.834C167.179 479.816 165.661 479.811 164.15 479.767C163.171 479.739 162.195 479.745 161.218 479.735C160.266 479.726 159.313 479.711 158.36 479.7C158.068 479.696 157.774 479.698 157.481 479.7C155.379 479.714 153.278 479.67 151.175 479.67C150.565 479.67 149.956 479.662 149.345 479.666C148.661 479.67 147.978 479.648 147.294 479.642C146.462 479.634 145.63 479.632 144.799 479.625C143.234 479.612 141.671 479.593 140.106 479.584C138.638 479.576 137.17 479.579 135.701 479.573C135.312 479.571 134.923 479.55 134.534 479.545C134.268 479.542 133.999 479.546 133.736 479.557C133.167 479.582 132.618 479.578 132.105 479.461C131.986 479.434 131.829 479.422 131.688 479.419C131.03 479.407 130.371 479.409 129.713 479.37C129.31 479.346 128.887 479.374 128.474 479.365C127.424 479.346 126.372 479.331 125.326 479.291C124.282 479.251 123.232 479.242 122.192 479.167C121.65 479.128 121.072 479.154 120.513 479.165C119.854 479.178 119.198 479.208 118.539 479.228C118.293 479.235 118.042 479.23 117.864 479.15C117.719 479.086 117.528 479.081 117.331 479.075C116.868 479.062 116.406 479.047 115.944 479.034C115.823 479.031 115.696 479.026 115.578 479.034C114.87 479.079 114.165 479.054 113.457 479.034C112.983 479.021 112.544 478.975 112.116 478.902C111.76 478.841 111.398 478.785 111.042 478.724C110.981 478.713 110.935 478.689 110.844 478.659C111.084 478.573 111.375 478.569 111.646 478.547C111.906 478.526 112.166 478.506 112.432 478.485C112.39 478.476 112.356 478.466 112.316 478.461C112.221 478.449 112.109 478.439 112.156 478.389C112.178 478.367 112.263 478.354 112.32 478.337C112.338 478.34 112.358 478.342 112.376 478.345C112.356 478.343 112.335 478.341 112.315 478.34V478.34Z" fill="black"/>
<path d="M1 395.889L88.6539 253.867H247.318L339.41 395.889C339.41 395.889 312.138 360.942 303.905 374.807C299.702 381.886 303.905 395.889 303.905 395.889C303.905 395.889 284.781 366.302 272.838 374.807C264.185 380.969 267.29 401.436 267.29 401.436C267.29 401.436 244.889 367.113 236.223 379.245C231.186 386.297 236.223 401.436 236.223 401.436C236.223 401.436 217.587 376.15 206.265 383.684C197.186 389.725 203.866 409.515 205.79 414.64C206.1 415.415 206.265 415.86 206.265 415.86C206.265 415.86 206.083 415.42 205.79 414.64C203.405 408.672 192.491 383.137 182.965 390.341C177.382 394.564 176.308 406.984 176.308 406.984C176.308 406.984 157.067 366.499 148.569 379.245C143.762 386.456 148.569 401.436 148.569 401.436C148.569 401.436 138.955 391.116 130.816 390.341C117.948 389.115 105.297 411.422 105.297 411.422C105.297 411.422 109.204 400.53 105.297 395.889C99.8147 389.376 84.2157 401.436 84.2157 401.436C84.2157 401.436 85.3365 394.526 84.2157 390.341C80.0445 374.764 48.7103 411.422 48.7103 411.422C48.7103 411.422 53.7675 396.837 48.7103 390.341C41.4017 380.952 18.7527 395.889 18.7527 395.889C18.7527 395.889 21.4529 387.611 18.7527 383.684C13.9863 376.751 1 395.889 1 395.889Z" fill="#1EBB73" stroke="#26EA90" stroke-width="2.21908"/>
<path d="M101.966 188.402L18.75 300.466C18.75 300.466 73.0709 275.017 66.4603 292.699C65.237 295.972 62.0222 300.466 62.0222 300.466C62.0222 300.466 91.3953 266.623 101.966 280.494C109.361 290.2 98.6371 311.562 98.6371 311.562C98.6371 311.562 118.18 291.39 124.157 300.466C127.493 305.533 124.157 316 124.157 316C124.157 316 135.509 294.478 148.566 292.699C163.939 290.605 180.743 316 180.743 316C180.743 316 177.238 305.417 180.743 300.466C186.524 292.302 205.153 308.233 205.153 308.233C205.153 308.233 197.413 299.552 195.167 292.699C188.83 273.364 241.768 316 241.768 316C241.768 316 231.267 300.634 236.22 292.699C242.842 282.091 267.288 300.466 267.288 300.466C267.288 300.466 264.073 295.972 262.849 292.699C256.239 275.017 310.56 300.466 310.56 300.466L236.22 188.402H101.966Z" fill="#26EA90"/>
<path d="M101.966 188.402L18.75 300.466C18.75 300.466 73.0709 275.017 66.4603 292.699C65.237 295.972 62.0222 300.466 62.0222 300.466C62.0222 300.466 91.3953 266.623 101.966 280.494C109.361 290.2 98.6371 311.562 98.6371 311.562C98.6371 311.562 118.18 291.39 124.157 300.466C127.493 305.533 124.157 316 124.157 316C124.157 316 135.509 294.478 148.566 292.699C163.939 290.605 180.743 316 180.743 316C180.743 316 177.238 305.417 180.743 300.466C186.524 292.302 205.153 308.233 205.153 308.233C205.153 308.233 197.413 299.552 195.167 292.699C188.83 273.364 241.768 316 241.768 316C241.768 316 231.267 300.634 236.22 292.699C242.842 282.091 267.288 300.466 267.288 300.466C267.288 300.466 264.073 295.972 262.849 292.699C256.239 275.017 310.56 300.466 310.56 300.466L236.22 188.402H101.966Z" stroke="#26EA90" stroke-width="2.21908"/>
<path d="M101.966 188.402L18.75 300.466C18.75 300.466 73.0709 275.017 66.4603 292.699C65.237 295.972 62.0222 300.466 62.0222 300.466C62.0222 300.466 91.3953 266.623 101.966 280.494C109.361 290.2 98.6371 311.562 98.6371 311.562C98.6371 311.562 118.18 291.39 124.157 300.466C127.493 305.533 124.157 316 124.157 316C124.157 316 135.509 294.478 148.566 292.699C163.939 290.605 180.743 316 180.743 316C180.743 316 177.238 305.417 180.743 300.466C186.524 292.302 205.153 308.233 205.153 308.233C205.153 308.233 197.413 299.552 195.167 292.699C188.83 273.364 241.768 316 241.768 316C241.768 316 231.267 300.634 236.22 292.699C242.842 282.091 267.288 300.466 267.288 300.466C267.288 300.466 264.073 295.972 262.849 292.699C256.239 275.017 310.56 300.466 310.56 300.466L236.22 188.402H101.966Z" stroke="black" stroke-opacity="0.2" stroke-width="2.21908"/>
<path d="M37.6172 217.253L126.381 121.832H200.72L292.812 217.253C292.812 217.253 240.555 188.709 242.883 208.376C243.817 216.276 252.868 226.129 252.868 226.129C252.868 226.129 221.536 203.942 219.582 217.253C218.737 223.011 224.165 230.13 226.923 233.321C227.896 234.371 228.458 235.005 228.458 235.005C228.458 235.005 227.838 234.379 226.923 233.321C221.056 226.997 200.25 205.614 197.391 217.253C196.564 220.619 197.391 226.129 197.391 226.129C197.391 226.129 186.487 210.44 177.42 212.815C165.683 215.888 177.42 243.882 177.42 243.882C177.42 243.882 162.756 211.433 148.571 217.253C140.554 220.542 135.257 235.005 135.257 235.005C135.257 235.005 135.684 213.569 126.381 212.815C118.74 212.195 111.957 226.129 111.957 226.129C111.957 226.129 118.194 208.928 111.957 201.719C102.52 190.812 80.8893 221.691 80.8893 221.691C80.8893 221.691 81.593 216.209 80.8893 212.815C77.441 196.181 37.6172 217.253 37.6172 217.253Z" fill="#1EBB73" stroke="#26EA90" stroke-width="2.21908"/>
<path d="M83.1094 146.242L141.915 68.5742H191.845L246.212 146.242C246.212 146.242 218.089 122.488 214.035 135.147C211.483 143.117 221.802 155.119 221.802 155.119C221.802 155.119 204.861 138.534 204.05 146.242C203.833 148.298 204.896 150.825 205.877 152.656C206.823 154.14 207.378 155.119 207.378 155.119C207.378 155.119 206.653 154.105 205.877 152.656C202.348 147.124 193.372 134.574 187.406 139.585C182.656 143.575 184.078 155.119 184.078 155.119C184.078 155.119 178.339 141.012 171.873 142.914C166.582 144.47 169.213 154.268 170.87 159.095C171.519 160.716 171.873 161.776 171.873 161.776C171.873 161.776 171.426 160.715 170.87 159.095C168.555 153.316 162.478 140.402 155.23 142.914C151.763 144.115 149.49 148.337 148.112 152.077C147.533 155.5 146.353 158.447 146.353 158.447C146.353 158.447 146.866 155.46 148.112 152.077C148.685 148.692 148.672 144.842 146.353 142.914C140.422 137.981 130.82 155.119 130.82 155.119C130.82 155.119 138.981 135.634 130.82 130.709C121.635 125.165 110.848 149.571 110.848 149.571C110.848 149.571 113.548 140.09 110.848 135.147C105.255 124.908 83.1094 146.242 83.1094 146.242Z" fill="#26EA90"/>
<path d="M83.1094 146.242L141.915 68.5742H191.845L246.212 146.242C246.212 146.242 218.089 122.488 214.035 135.147C211.483 143.117 221.802 155.119 221.802 155.119C221.802 155.119 204.861 138.534 204.05 146.242C203.833 148.298 204.896 150.825 205.877 152.656C206.823 154.14 207.378 155.119 207.378 155.119C207.378 155.119 206.653 154.105 205.877 152.656C202.348 147.124 193.372 134.574 187.406 139.585C182.656 143.575 184.078 155.119 184.078 155.119C184.078 155.119 178.339 141.012 171.873 142.914C166.582 144.47 169.213 154.268 170.87 159.095C171.519 160.716 171.873 161.776 171.873 161.776C171.873 161.776 171.426 160.715 170.87 159.095C168.555 153.316 162.478 140.402 155.23 142.914C151.763 144.115 149.49 148.337 148.112 152.077C147.533 155.5 146.353 158.447 146.353 158.447C146.353 158.447 146.866 155.46 148.112 152.077C148.685 148.692 148.672 144.842 146.353 142.914C140.422 137.981 130.82 155.119 130.82 155.119C130.82 155.119 138.981 135.634 130.82 130.709C121.635 125.165 110.848 149.571 110.848 149.571C110.848 149.571 113.548 140.09 110.848 135.147C105.255 124.908 83.1094 146.242 83.1094 146.242Z" stroke="#26EA90" stroke-width="2.21908"/>
<path d="M83.1094 146.242L141.915 68.5742H191.845L246.212 146.242C246.212 146.242 218.089 122.488 214.035 135.147C211.483 143.117 221.802 155.119 221.802 155.119C221.802 155.119 204.861 138.534 204.05 146.242C203.833 148.298 204.896 150.825 205.877 152.656C206.823 154.14 207.378 155.119 207.378 155.119C207.378 155.119 206.653 154.105 205.877 152.656C202.348 147.124 193.372 134.574 187.406 139.585C182.656 143.575 184.078 155.119 184.078 155.119C184.078 155.119 178.339 141.012 171.873 142.914C166.582 144.47 169.213 154.268 170.87 159.095C171.519 160.716 171.873 161.776 171.873 161.776C171.873 161.776 171.426 160.715 170.87 159.095C168.555 153.316 162.478 140.402 155.23 142.914C151.763 144.115 149.49 148.337 148.112 152.077C147.533 155.5 146.353 158.447 146.353 158.447C146.353 158.447 146.866 155.46 148.112 152.077C148.685 148.692 148.672 144.842 146.353 142.914C140.422 137.981 130.82 155.119 130.82 155.119C130.82 155.119 138.981 135.634 130.82 130.709C121.635 125.165 110.848 149.571 110.848 149.571C110.848 149.571 113.548 140.09 110.848 135.147C105.255 124.908 83.1094 146.242 83.1094 146.242Z" stroke="black" stroke-opacity="0.2" stroke-width="2.21908"/>
<path d="M121.938 79.668L160.771 2H170.757L218.468 79.668C218.468 79.668 201.001 72.6851 195.167 79.668C192 83.4593 191.839 91.8729 191.839 91.8729C191.839 91.8729 179.949 77.2168 170.757 79.668C164.244 81.4048 158.552 91.8729 158.552 91.8729C158.552 91.8729 157.741 86.6695 155.224 85.2157C151.528 83.0813 145.238 89.6539 145.238 89.6539C145.238 89.6539 153.681 77.632 148.567 74.1203C143.923 70.9318 135.252 79.668 135.252 79.668C135.252 79.668 136.085 76.1201 135.252 74.1203C133.085 68.9206 121.938 79.668 121.938 79.668Z" fill="#1EBB73" stroke="#26EA90" stroke-width="2.21908"/>
</svg>
