<svg width="1194" height="646" viewBox="0 0 1194 646" fill="none" xmlns="http://www.w3.org/2000/svg">
<rect width="1194" height="646" fill="#232CB5"/>
<path d="M33 0V646" stroke="#1F2588" stroke-width="3"/>
<path d="M82 0V646" stroke="#1F2588" stroke-width="3"/>
<path d="M131 0V646" stroke="#1F2588" stroke-width="3"/>
<path d="M180 0V646" stroke="#1F2588" stroke-width="3"/>
<path d="M229 0V646" stroke="#1F2588" stroke-width="3"/>
<path d="M278 0V646" stroke="#1F2588" stroke-width="3"/>
<path d="M327 0V646" stroke="#1F2588" stroke-width="3"/>
<path d="M376 0V646" stroke="#1F2588" stroke-width="3"/>
<path d="M425 0V646" stroke="#1F2588" stroke-width="3"/>
<path d="M474 0V646" stroke="#1F2588" stroke-width="3"/>
<path d="M523 0V646" stroke="#1F2588" stroke-width="3"/>
<path d="M572 0V646" stroke="#1F2588" stroke-width="3"/>
<path d="M621 0V646" stroke="#1F2588" stroke-width="3"/>
<path d="M670 0V646" stroke="#1F2588" stroke-width="3"/>
<path d="M719 0V646" stroke="#1F2588" stroke-width="3"/>
<path d="M768 0V646" stroke="#1F2588" stroke-width="3"/>
<path d="M817 0V646" stroke="#1F2588" stroke-width="3"/>
<path d="M866 0V646" stroke="#1F2588" stroke-width="3"/>
<path d="M915 0V646" stroke="#1F2588" stroke-width="3"/>
<path d="M964 0V646" stroke="#1F2588" stroke-width="3"/>
<path d="M1013 0V646" stroke="#1F2588" stroke-width="3"/>
<path d="M1062 0V646" stroke="#1F2588" stroke-width="3"/>
<path d="M1111 0V646" stroke="#1F2588" stroke-width="3"/>
<path d="M1160 0V646" stroke="#1F2588" stroke-width="3"/>
</svg>
