<svg width="346" height="150" viewBox="0 0 346 150" fill="none" xmlns="http://www.w3.org/2000/svg">
<path d="M9.25009 52.4961H82.7499C85.6585 52.4961 88 54.751 88 57.5517V110.441C88 113.242 85.6585 115.497 82.7499 115.497H9.25009C6.34154 115.497 4 113.242 4 110.441V57.5517C4 54.751 6.34154 52.4961 9.25009 52.4961Z" fill="#A709AA"/>
<path d="M81.002 52.4961V97.9961C81.002 107.691 73.197 115.496 63.502 115.496H82.752C85.6605 115.496 88.002 113.245 88.002 110.444V57.5547C88.002 54.754 85.6605 52.4961 82.752 52.4961H81.002ZM7.02344 115.004C7.70205 115.312 8.4499 115.496 9.25196 115.496H11.002C9.62632 115.496 8.30608 115.3 7.02344 115.004Z" fill="#851087"/>
<path d="M27.2937 75.81L25.6508 74.7825L24.009 75.8121L24.4784 73.9318L22.9922 72.6885L24.9252 72.5557L25.6484 70.7578L26.3737 72.5544L28.3069 72.6877L26.8221 73.9327L27.2937 75.81Z" fill="#FFB800"/>
<path d="M17.0616 69.4916L14.5972 67.9506L12.1346 69.4946L12.8387 66.6744L10.6094 64.8094L13.5089 64.6065L14.5937 61.9102L15.6817 64.6057L18.5814 64.8052L16.3543 66.6727L17.0616 69.4916Z" fill="#FFB800"/>
<path d="M17.0616 84.66L14.5972 83.119L12.1346 84.663L12.8387 81.8428L10.6094 79.9778L13.5089 79.7749L14.5937 77.0781L15.6817 79.7732L18.5814 79.9727L16.3543 81.8402L17.0616 84.66Z" fill="#FFB800"/>
<path d="M17.0616 98.5585L14.5972 97.0174L12.1346 98.5615L12.8387 95.7412L10.6094 93.8763L13.5089 93.6733L14.5937 90.9766L15.6817 93.6721L18.5814 93.8716L16.3543 95.7391L17.0616 98.5585Z" fill="#FFB800"/>
<path d="M17.0616 113.726L14.5972 112.185L12.1346 113.729L12.8387 110.909L10.6094 109.044L13.5089 108.841L14.5937 106.145L15.6817 108.84L18.5814 109.039L16.3543 110.907L17.0616 113.726Z" fill="#FFB800"/>
<path d="M27.2937 104.88L25.6508 103.853L24.009 104.882L24.4784 103.002L22.9922 101.759L24.9252 101.626L25.6484 99.8281L26.3737 101.625L28.3069 101.758L26.8221 103.003L27.2937 104.88Z" fill="#FFB800"/>
<path d="M27.2937 90.3456L25.6508 89.3181L24.009 90.3477L24.4784 88.4674L22.9922 87.2241L24.9252 87.0912L25.6484 85.293L26.3737 87.09L28.3069 87.2233L26.8221 88.4683L27.2937 90.3456Z" fill="#FFB800"/>
<path d="M50.0437 75.81L48.4007 74.7825L46.759 75.8121L47.2284 73.9318L45.7422 72.6885L47.6752 72.5557L48.3984 70.7578L49.1237 72.5544L51.0569 72.6877L49.5721 73.9327L50.0437 75.81Z" fill="#FFB800"/>
<path d="M37.2882 69.4916L34.8238 67.9506L32.3612 69.4946L33.0653 66.6744L30.8359 64.8094L33.7355 64.6065L34.8203 61.9102L35.9082 64.6057L38.808 64.8052L36.5808 66.6727L37.2882 69.4916Z" fill="#FFB800"/>
<path d="M37.2882 84.66L34.8238 83.119L32.3612 84.663L33.0653 81.8428L30.8359 79.9778L33.7355 79.7749L34.8203 77.0781L35.9082 79.7732L38.808 79.9727L36.5808 81.8402L37.2882 84.66Z" fill="#FFB800"/>
<path d="M37.2882 98.5585L34.8238 97.0174L32.3612 98.5615L33.0653 95.7412L30.8359 93.8763L33.7355 93.6733L34.8203 90.9766L35.9082 93.6721L38.808 93.8716L36.5808 95.7391L37.2882 98.5585Z" fill="#FFB800"/>
<path d="M37.2882 113.726L34.8238 112.185L32.3612 113.729L33.0653 110.909L30.8359 109.044L33.7355 108.841L34.8203 106.145L35.9082 108.84L38.808 109.039L36.5808 110.907L37.2882 113.726Z" fill="#FFB800"/>
<path d="M50.0437 104.88L48.4007 103.853L46.759 104.882L47.2284 103.002L45.7422 101.759L47.6752 101.626L48.3984 99.8281L49.1237 101.625L51.0569 101.758L49.5721 103.003L50.0437 104.88Z" fill="#FFB800"/>
<path d="M50.0437 90.3456L48.4007 89.3181L46.759 90.3477L47.2284 88.4674L45.7422 87.2241L47.6752 87.0912L48.3984 85.293L49.1237 87.09L51.0569 87.2233L49.5721 88.4683L50.0437 90.3456Z" fill="#FFB800"/>
<path d="M72.7937 75.81L71.1508 74.7825L69.509 75.8121L69.9784 73.9318L68.4922 72.6885L70.4252 72.5557L71.1484 70.7578L71.8737 72.5544L73.8069 72.6877L72.3221 73.9327L72.7937 75.81Z" fill="#FFB800"/>
<path d="M62.5616 69.4916L60.0972 67.9506L57.6346 69.4946L58.3387 66.6744L56.1094 64.8094L59.0089 64.6065L60.0937 61.9102L61.1817 64.6057L64.0814 64.8052L61.8543 66.6727L62.5616 69.4916Z" fill="#FFB800"/>
<path d="M62.5616 84.66L60.0972 83.119L57.6346 84.663L58.3387 81.8428L56.1094 79.9778L59.0089 79.7749L60.0937 77.0781L61.1817 79.7732L64.0814 79.9727L61.8543 81.8402L62.5616 84.66Z" fill="#FFB800"/>
<path d="M62.5616 98.5585L60.0972 97.0174L57.6346 98.5615L58.3387 95.7412L56.1094 93.8763L59.0089 93.6733L60.0937 90.9766L61.1817 93.6721L64.0814 93.8716L61.8543 95.7391L62.5616 98.5585Z" fill="#FFB800"/>
<path d="M62.5616 113.726L60.0972 112.185L57.6346 113.729L58.3387 110.909L56.1094 109.044L59.0089 108.841L60.0937 106.145L61.1817 108.84L64.0814 109.039L61.8543 110.907L62.5616 113.726Z" fill="#FFB800"/>
<path d="M72.7937 104.88L71.1508 103.853L69.509 104.882L69.9784 103.002L68.4922 101.759L70.4252 101.626L71.1484 99.8281L71.8737 101.625L73.8069 101.758L72.3221 103.003L72.7937 104.88Z" fill="#FFB800"/>
<path d="M72.7937 90.3456L71.1508 89.3181L69.509 90.3477L69.9784 88.4674L68.4922 87.2241L70.4252 87.0912L71.1484 85.293L71.8737 87.09L73.8069 87.2233L72.3221 88.4683L72.7937 90.3456Z" fill="#FFB800"/>
<path d="M82.7893 69.4913L80.3249 67.9503L77.8623 69.4942L78.5664 66.6742L76.337 64.8092L79.2366 64.6074L80.3214 61.9109L81.4093 64.6061L84.3091 64.8046L82.0819 66.6722L82.7893 69.4913Z" fill="#FFB800"/>
<path d="M82.7893 84.6593L80.3249 83.1183L77.8623 84.6622L78.5664 81.8421L76.337 79.9772L79.2366 79.7754L80.3214 77.0789L81.4093 79.7741L84.3091 79.9726L82.0819 81.8401L82.7893 84.6593Z" fill="#FFB800"/>
<path d="M80.998 63.6063V68.3774L82.7822 69.4921L82.0781 66.6757L84.3066 64.8026L81.4013 64.6031L80.998 63.6063ZM80.998 78.7748V83.5399L82.7822 84.661L82.0781 81.8373L84.3066 79.9711L81.4013 79.7716L80.998 78.7748ZM80.998 92.6796V97.4442L82.7822 98.5649L82.0781 95.7421L84.3066 93.8759L81.4013 93.6763L80.998 92.6796ZM80.998 107.842V110.446C80.998 111.129 80.8542 111.774 80.6016 112.367L82.7822 113.727L82.0781 110.911L84.3066 109.045L81.4013 108.845L80.998 107.842Z" fill="#FFB800"/>
<path d="M82.7893 98.5616L80.3249 97.0206L77.8623 98.5645L78.5664 95.7445L76.337 93.8795L79.2366 93.6777L80.3214 90.9812L81.4093 93.6765L84.3091 93.8749L82.0819 95.7425L82.7893 98.5616Z" fill="#FFB800"/>
<path d="M82.7893 113.726L80.3249 112.185L77.8623 113.729L78.5664 110.909L76.337 109.044L79.2366 108.842L80.3214 106.145L81.4093 108.841L84.3091 109.039L82.0819 110.907L82.7893 113.726Z" fill="#FFB800"/>
<path d="M4.00006 38.4961H87.9998C89.9388 38.4961 91.4999 40.0571 91.4999 41.9961V55.9961C91.4999 57.9351 89.9388 59.4961 87.9998 59.4961H4.00006C2.06103 59.4961 0.5 57.9351 0.5 55.9961V41.9961C0.5 40.0571 2.06103 38.4961 4.00006 38.4961Z" fill="#851087"/>
<path d="M81 38.4961C82.939 38.4961 84.5 40.0571 84.5 41.9961V55.9961C84.5 57.9351 82.939 59.4961 81 59.4961H88C89.939 59.4961 91.5 57.9351 91.5 55.9961V41.9961C91.5 40.0571 89.939 38.4961 88 38.4961H81Z" fill="#851087"/>
<path d="M9.09291 57.0862L6.62849 55.5452L4.16589 57.0888L4.86998 54.269L2.64062 52.4041L5.5402 52.2007L6.62499 49.5039L7.71293 52.1994L10.6127 52.3989L8.38553 54.2664L9.09291 57.0862Z" fill="#FFB800"/>
<path d="M11.3648 45.5175L13.0077 44.4899L14.6495 45.5192L14.18 43.6393L15.6663 42.3956L13.7332 42.2627L13.0101 40.4648L12.2848 42.2618L10.3516 42.3947L11.8364 43.6397L11.3648 45.5175Z" fill="#FFB800"/>
<path d="M29.7023 46.7842L27.2379 45.2431L24.7753 46.7872L25.4794 43.9673L23.25 42.1024L26.1496 41.8995L27.2344 39.2031L28.3223 41.8982L31.2221 42.0977L28.9949 43.9652L29.7023 46.7842Z" fill="#FFB800"/>
<path d="M19.146 57.0834L20.789 56.0563L22.4307 57.0851L21.9613 55.2057L23.4475 53.962L21.5145 53.8291L20.7913 52.0312L20.066 53.8282L18.1328 53.9611L19.6176 55.2061L19.146 57.0834Z" fill="#FFB800"/>
<path d="M39.0382 57.0862L36.5738 55.5452L34.1112 57.0888L34.8153 54.269L32.5859 52.4041L35.4855 52.2007L36.5703 49.5039L37.6582 52.1994L40.558 52.3989L38.3308 54.2664L39.0382 57.0862Z" fill="#FFB800"/>
<path d="M41.3101 45.5175L42.953 44.4899L44.5948 45.5192L44.1254 43.6393L45.6116 42.3956L43.6785 42.2627L42.9554 40.4648L42.2301 42.2618L40.2969 42.3947L41.7817 43.6397L41.3101 45.5175Z" fill="#FFB800"/>
<path d="M59.6476 46.7842L57.1832 45.2431L54.7206 46.7872L55.4247 43.9673L53.1953 42.1024L56.0949 41.8995L57.1797 39.2031L58.2676 41.8982L61.1674 42.0977L58.9402 43.9652L59.6476 46.7842Z" fill="#FFB800"/>
<path d="M49.0913 57.0834L50.7343 56.0563L52.376 57.0851L51.9066 55.2057L53.3928 53.962L51.4598 53.8291L50.7366 52.0312L50.0113 53.8282L48.0781 53.9611L49.5629 55.2061L49.0913 57.0834Z" fill="#FFB800"/>
<path d="M69.757 57.0862L67.2925 55.5452L64.8299 57.0888L65.534 54.269L63.3047 52.4041L66.2043 52.2007L67.2891 49.5039L68.377 52.1994L71.2768 52.3989L69.0496 54.2664L69.757 57.0862Z" fill="#FFB800"/>
<path d="M72.0288 45.5175L73.6718 44.4899L75.3135 45.5192L74.8441 43.6393L76.3303 42.3956L74.3973 42.2627L73.6741 40.4648L72.9488 42.2618L71.0156 42.3947L72.5004 43.6397L72.0288 45.5175Z" fill="#FFB800"/>
<path d="M79.8101 57.0834L81.453 56.0563L83.0948 57.0851L82.6253 55.2057L84.1116 53.962L82.1785 53.8291L81.4554 52.0312L80.7301 53.8282L78.7969 53.9611L80.2817 55.2061L79.8101 57.0834Z" fill="#FFB800"/>
<path d="M0.500035 43.7142V43.7842L2.52423 42.0958L0.5175 41.9766C0.5175 41.9766 0.503535 43.234 0.500035 43.7142ZM0.500035 44.7802V46.4691L1.00358 46.7805L0.500035 44.7759V44.7802Z" fill="#FFB800"/>
<path fill-rule="evenodd" clip-rule="evenodd" d="M42.5 38.4453V115.493H49.5V38.4453H42.5Z" fill="#9C398A"/>
<path d="M43.4316 31.4922C33.1838 31.4922 24.7968 39.8793 24.7969 50.127L28.9954 46.2762L31.7969 50.127C31.7968 43.6625 36.9669 38.4922 43.4316 38.4922V31.4922Z" fill="#9C398A"/>
<path d="M48.5625 31.4922C58.8104 31.4922 67.1905 39.8793 67.1904 50.127L63.3415 46.6261L60.1904 50.127C60.1905 43.6625 55.0273 38.4922 48.5625 38.4922V31.4922Z" fill="#9C398A"/>
<path d="M43.4306 31.4961C36.0991 31.4961 29.74 35.8 26.7031 41.9961H35.0977C37.2054 39.8362 40.1472 38.4961 43.4306 38.4961V31.4961ZM48.5644 31.4961V38.4961C51.8479 38.4961 54.7846 39.8362 56.8906 41.9961H65.2852C62.2503 35.8 55.8961 31.4961 48.5644 31.4961Z" fill="#9C398A"/>
<path d="M90.3663 46.7842L87.9019 45.2431L85.4393 46.7872L86.1434 43.9673L83.9141 42.1024L86.8136 41.8995L87.8984 39.2031L88.9864 41.8978L91.4848 42.0695L91.4953 42.4241L89.6582 43.9644L90.3663 46.7842Z" fill="#FFB800"/>
<path d="M32 14.8828C25.3697 14.8828 19.75 20.1083 19.75 26.6887C19.75 33.2694 25.3695 38.4944 32 38.4944H46C46.5409 38.4945 47.0744 38.3693 47.5587 38.1286C48.0431 37.888 48.4651 37.5383 48.7916 37.1071C49.1181 36.6759 49.3403 36.1748 49.4407 35.6433C49.541 35.1119 49.5169 34.5647 49.3701 34.0442C48.2398 30.0402 47.4101 25.6918 45.2344 21.8488C43.0586 18.0055 38.803 14.8828 33.0527 14.8828H32ZM32 21.883H33.0527C36.7525 21.883 37.7929 22.9154 39.1436 25.301C39.9295 26.6894 40.5358 29.2831 41.1738 31.4944H32C28.9354 31.4944 26.75 29.3123 26.75 26.6887C26.75 24.0665 28.9352 21.883 32 21.883Z" fill="#9C398A"/>
<path d="M58.9487 14.8828C53.1985 14.8828 48.9428 18.0055 46.7671 21.8488C44.5914 25.6918 43.7616 30.0402 42.6314 34.0442C42.4846 34.5647 42.4604 35.1119 42.5608 35.6433C42.6612 36.1748 42.8833 36.6759 43.2099 37.1071C43.5364 37.5383 43.9584 37.888 44.4427 38.1286C44.9271 38.3693 45.4606 38.4945 46.0015 38.4944H60.0015C66.6319 38.4944 72.2515 33.2694 72.2515 26.6887C72.2515 20.1083 66.6318 14.8828 60.0015 14.8828H58.9487ZM58.9487 21.883H60.0015C63.0662 21.883 65.2515 24.0665 65.2515 26.6887C65.2515 29.3123 63.0661 31.4944 60.0015 31.4944H50.8276C51.4656 29.2831 52.0719 26.6894 52.8579 25.301C54.2085 22.9154 55.249 21.883 58.9487 21.883Z" fill="#9C398A"/>
<path d="M203.908 51.098L152.453 68.4961V129.759L203.908 112.361V51.098Z" fill="#F3F2EF"/>
<path d="M163.048 64.9123L152.453 75.1111V78.0892L167.817 63.3L163.048 64.9123Z" fill="#FE3D2F"/>
<path d="M203.909 56.5644L152.453 106.926V109.925L203.909 59.5643V56.5644Z" fill="#26EA90"/>
<path d="M203.909 63.4629L152.453 113.824V116.824L203.909 66.4622V63.4629Z" fill="#FE3D2F"/>
<path d="M203.909 69.8222L152.453 120.183V123.183L203.909 72.8216V69.8222Z" fill="#26EA90"/>
<path d="M173.391 61.416L152.453 81.5708V84.549L178.159 59.8039L173.391 61.416Z" fill="#26EA90"/>
<path d="M183.951 57.8443L152.453 88.1657V91.1432L188.72 56.232L183.951 57.8443Z" fill="#FE3D2F"/>
<path d="M193.448 54.6329L152.453 94.0954V97.073L198.216 53.0206L193.448 54.6329Z" fill="#26EA90"/>
<path d="M203.76 51.1469L152.453 100.536V103.514L203.909 53.9823V51.1518L203.874 51.1086L203.76 51.1469Z" fill="#FE3D2F"/>
<path d="M203.907 104.893L191.945 116.407L196.714 114.794L203.907 107.87V104.893Z" fill="#FE3D2F"/>
<path d="M203.907 97.1086L179.484 120.619L184.253 119.006L203.907 100.087V97.1086Z" fill="#26EA90"/>
<path d="M203.908 89.9331L167.992 124.506L172.761 122.893L203.908 92.9107V89.9331Z" fill="#FE3D2F"/>
<path d="M203.912 83.2521L158.836 126.642L159.431 127.401L162.069 126.508L203.912 86.2296V83.2521Z" fill="#26EA90"/>
<path d="M203.561 76.794L152.453 125.991V128.969L203.909 79.4374V77.2374L203.561 76.794Z" fill="#FE3D2F"/>
<path d="M152.455 129.976L101 105.574V44.311L152.455 68.7132V129.976Z" fill="#F3F2EF"/>
<path d="M111.595 110.6L101 98.9592V95.9811L116.364 112.862L111.595 110.6Z" fill="#FE3D2F"/>
<path d="M152.455 124.51L101 67.1446V64.1452L152.455 121.51V124.51Z" fill="#26EA90"/>
<path d="M152.455 117.612L101 60.2462V57.2468L152.455 114.612V117.612Z" fill="#FE3D2F"/>
<path d="M152.455 111.252L101 53.8873V50.8874L152.455 108.253V111.252Z" fill="#26EA90"/>
<path d="M121.938 115.504L101 92.4995V89.5213L126.706 117.766L121.938 115.504Z" fill="#26EA90"/>
<path d="M132.498 120.514L101 85.9046V82.9271L137.267 122.775L132.498 120.514Z" fill="#FE3D2F"/>
<path d="M141.995 125.018L101 79.9749V76.9973L146.763 127.279L141.995 125.018Z" fill="#26EA90"/>
<path d="M152.307 129.907L101 73.5347V70.5566L152.455 127.092V129.923L152.421 129.961L152.307 129.907Z" fill="#FE3D2F"/>
<path d="M152.454 76.1847L140.492 63.0426L145.261 65.304L152.454 73.2071V76.1847Z" fill="#FE3D2F"/>
<path d="M152.454 83.9658L128.031 57.1314L132.8 59.3928L152.454 80.9877V83.9658Z" fill="#26EA90"/>
<path d="M152.455 91.1432L116.539 51.6819L121.308 53.9433L152.455 88.1656V91.1432Z" fill="#FE3D2F"/>
<path d="M152.459 97.8212L107.383 48.295L107.977 47.6179L110.616 48.8694L152.459 94.8436V97.8212Z" fill="#26EA90"/>
<path d="M152.108 104.233L101 48.0797V45.1015L152.455 101.637V103.837L152.108 104.233Z" fill="#FE3D2F"/>
<path d="M203.998 44.4766L203.909 56.5625L152.453 68.7149L152.542 56.473L203.998 44.4766Z" fill="#26EA90"/>
<path d="M184.177 49.0742L174.531 51.3286L174.579 122.426L184.26 119.007L184.177 49.0742Z" fill="#1EBB73"/>
<path d="M152.63 68.5586L152.541 56.4727L101.086 44.3203L101.175 56.5622L152.63 68.5586Z" fill="#26EA90"/>
<path d="M152.545 31.4297L204 44.4775L152.545 56.4739L101 44.3136L152.545 31.4297Z" fill="#26EA90"/>
<path d="M116.18 47.7383L125.826 49.9927L125.826 117.64L116.364 112.861L116.18 47.7383Z" fill="#1EBB73"/>
<path d="M116.18 47.7403L165.185 34.6875L173.891 36.9538L125.826 49.9947L116.18 47.7403Z" fill="#1EBB73"/>
<path d="M184.172 49.0723L135.167 36.0195L126.461 38.2858L174.526 51.3267L184.172 49.0723Z" fill="#1EBB73"/>
<path d="M147.406 42.387C147.406 42.387 150.75 29.8744 153.8 28.0016C156.849 26.1289 157.91 27.2699 159.522 28.2942C161.065 29.275 162.557 29.6572 162.101 33.1352C161.645 36.6132 151.491 44.5182 151.491 44.5182L147.406 42.387Z" fill="#1EA366"/>
<path d="M155.575 42.387C155.575 42.387 152.231 29.8744 149.182 28.0016C146.132 26.1289 145.072 27.2699 143.46 28.2942C141.917 29.275 140.424 29.6572 140.88 33.1352C141.336 36.6132 151.491 44.5182 151.491 44.5182L155.575 42.387Z" fill="#1EA366"/>
<path d="M151.495 44.5164C151.495 44.5164 138.544 44.3759 135.974 41.8854C133.405 39.3949 134.247 38.0847 134.84 36.2694C135.408 34.5313 135.409 32.9907 138.892 32.5709C142.374 32.1511 152.548 40.0311 152.548 40.0311L151.495 44.5164Z" fill="#1EBB73"/>
<path d="M148.906 40.7052C148.906 40.7052 157.788 31.2781 161.36 31.0767C164.933 30.8754 165.326 32.383 166.258 34.0495C167.151 35.6451 168.284 36.6897 166.232 39.5349C164.18 42.38 151.49 44.5195 151.49 44.5195L148.906 40.7052Z" fill="#1EBB73"/>
<path d="M130.445 65.625H98.7578V58.3125L130.445 51V65.625Z" fill="#FFB800"/>
<path d="M64.6328 65.625H93.8828V58.3125L62.1953 51V65.625H64.6328Z" fill="#FFB800"/>
<path d="M140.431 65.6602H58.5V149.972H140.431V65.6602Z" fill="#170AF4"/>
<path d="M140.569 101.755V110.018H100.156V149.971H91.9079V110.018H58.5025V102.887C58.3401 103.1 58.1739 103.312 58 103.525V102.902C58.1701 102.686 58.3401 102.47 58.5025 102.253V101.755H91.9079V61.7148H100.171V101.755H140.569Z" fill="#1F2588"/>
<path d="M140.431 103.499C138.612 102.984 136.896 102.403 135.283 101.756C133.737 101.148 132.292 100.504 130.95 99.8233L130.467 99.5721C123.347 95.8423 118.675 91.069 115.61 86.516C119.189 77.6651 122.768 70.1669 125.009 65.6757H124.577C122.346 70.1514 118.852 77.4834 115.351 86.1295C114.864 85.3913 114.423 84.6608 114.017 83.9419C110.895 78.3364 109.112 72.0848 108.807 65.6757H108.421C108.729 72.1357 110.525 78.4371 113.669 84.0888C114.141 84.9262 114.642 85.7443 115.173 86.5431C114.257 88.8157 113.341 91.1811 112.467 93.5929C111.517 96.1747 110.562 98.9112 109.65 101.744C108.877 104.164 108.104 106.657 107.424 109.188L107.284 109.683C107.257 109.791 107.226 109.899 107.199 110.008C106.712 111.796 106.261 113.592 105.847 115.396C104.154 115.323 102.434 115.271 100.687 115.237H100.153C98.9707 115.216 97.797 115.207 96.6323 115.21H96.2458C94.7771 115.21 93.3277 115.227 91.8977 115.26H90.9507H90.5333C87.3485 115.345 84.2758 115.484 81.3655 115.666C80.4482 114.02 79.5979 112.387 78.8145 110.769C78.745 110.634 78.6793 110.495 78.6136 110.359C78.5991 110.334 78.5862 110.309 78.5749 110.282L78.4474 110.012C77.1217 107.248 75.9312 104.481 74.8645 101.748C72.7281 96.2506 70.9326 90.6266 69.4882 84.9081C71.8717 82.2303 73.8533 79.2202 75.3708 75.9722C76.9096 72.6757 78.0863 69.2221 78.8802 65.6719H78.4937C77.7053 69.1698 76.539 72.5717 75.0152 75.8176C73.5543 78.9521 71.6557 81.8632 69.3761 84.4637C67.8104 78.2839 66.6625 72.0058 65.9401 65.6719H65.5536C66.2861 72.124 67.4574 78.5187 69.0592 84.8115C68.1959 85.7624 67.2701 86.6546 66.288 87.4823C66.1102 87.633 65.9285 87.7837 65.743 87.9306C63.5603 89.689 61.1165 91.0961 58.4999 92.101V92.5145C61.0228 91.5622 63.3906 90.2415 65.5266 88.5954C65.7121 88.4563 65.9131 88.3094 66.0754 88.1664C67.1748 87.2775 68.2082 86.31 69.1674 85.2715C70.5884 90.8728 72.3477 96.3828 74.4355 101.771C75.4945 104.5 76.681 107.271 78.0029 110.035C78.0686 110.178 78.1382 110.321 78.2077 110.464C78.2773 110.607 78.3082 110.672 78.3623 110.777C78.4164 110.881 78.4937 111.047 78.5594 111.183C79.3325 112.729 80.1055 114.236 80.9133 115.709C78.9807 115.832 77.1281 115.968 75.3553 116.114L74.8568 116.157C67.3702 116.787 61.5224 117.575 58.4922 118.028V118.414C61.4528 117.974 67.1963 117.193 74.5669 116.567L75.0693 116.52C77.0018 116.362 79.0117 116.211 81.122 116.08C82.913 119.313 84.8901 122.44 87.0432 125.445C87.136 125.576 87.2287 125.707 87.3292 125.831C88.785 127.849 90.3053 129.767 91.8899 131.586C94.4274 134.526 97.1903 137.263 100.153 139.772C101.037 140.522 101.939 141.246 102.859 141.944C103.207 142.211 103.558 142.47 103.91 142.717C103.93 142.837 103.949 142.957 103.972 143.077C103.995 143.197 104.018 143.34 104.045 143.463C104.213 144.36 104.411 145.234 104.641 146.084C103.396 145.62 102.167 145.179 100.953 144.762L100.389 144.573L100.157 144.492C97.2971 143.525 94.5336 142.683 91.8938 141.948C88.0829 140.889 84.5502 140.062 81.3229 139.409C73.8097 137.858 66.1839 136.913 58.5192 136.584V136.97C66.1632 137.297 73.7684 138.24 81.2611 139.788C84.4884 140.445 88.0674 141.28 91.9093 142.35C94.4525 143.058 97.1077 143.865 99.8558 144.789L100.173 144.897L100.42 144.982C101.85 145.469 103.306 145.985 104.788 146.528C104.9 146.915 105.023 147.325 105.174 147.715C105.433 148.488 105.719 149.222 106.036 149.937H106.461C106.121 149.188 105.816 148.391 105.541 147.591C105.441 147.298 105.348 147 105.259 146.698C107.836 147.672 110.464 148.752 113.144 149.937H114.087C111.041 148.561 108.042 147.332 105.124 146.235C104.853 145.284 104.629 144.302 104.444 143.289C104.424 143.201 104.409 143.112 104.393 143.019C104.474 143.081 104.56 143.139 104.645 143.197C108.364 145.853 112.351 148.112 116.541 149.937H117.67C113.255 148.078 109.055 145.745 105.143 142.98L104.78 142.721L104.281 142.358C103.708 138.382 103.588 134.353 103.926 130.349C103.926 130.199 103.926 130.044 103.957 129.889C104.134 127.648 104.417 125.356 104.784 123.048C104.818 122.813 104.857 122.573 104.9 122.333C105.244 120.258 105.673 118.163 106.125 116.076C106.144 115.971 106.171 115.863 106.194 115.755L106.681 115.778C108.753 115.879 110.863 116.018 112.997 116.196L113.662 116.254L114.118 116.296C122.555 117.069 131.321 118.515 139.376 121.073L139.898 121.236L140.458 121.425V120.969L139.612 120.694L139.094 120.528C138.321 120.286 137.523 120.05 136.701 119.821C129.412 117.852 121.959 116.548 114.435 115.925L114.002 115.886L113.229 115.817L112.583 115.763C110.883 115.629 109.15 115.517 107.385 115.426L106.612 115.388H106.295C106.705 113.602 107.153 111.824 107.624 110.062C107.626 110.044 107.626 110.026 107.624 110.008C107.663 109.861 107.706 109.714 107.744 109.567C108.471 106.904 109.259 104.284 110.063 101.744C110.96 98.9575 111.899 96.2675 112.835 93.7282C113.693 91.4091 114.574 89.121 115.455 86.9296C118.633 91.5665 122.762 95.4732 127.568 98.3894C128.558 98.9975 129.588 99.5721 130.66 100.113L131.143 100.353C132.133 100.845 133.149 101.306 134.193 101.737C136.232 102.581 138.321 103.302 140.446 103.897L140.582 103.936V103.518L140.431 103.499ZM105.746 115.836C105.707 116.002 105.669 116.172 105.634 116.342C105.17 118.433 104.764 120.528 104.428 122.612C104.386 122.836 104.351 123.056 104.32 123.276C103.957 125.595 103.682 127.864 103.512 130.102C103.512 130.257 103.512 130.411 103.481 130.566C103.176 134.399 103.283 138.254 103.802 142.064C102.547 141.129 101.331 140.159 100.153 139.154C97.1952 136.624 94.4376 133.869 91.9054 130.914C90.3323 129.089 88.8636 127.219 87.4954 125.325L87.2094 124.938C85.1702 122.081 83.2902 119.113 81.578 116.049C84.3802 115.879 87.3292 115.743 90.3826 115.662H90.8L91.9054 115.639C93.32 115.608 94.7514 115.593 96.1995 115.593H96.586C97.7687 115.593 98.9604 115.602 100.161 115.62H100.687C102.344 115.651 104.038 115.703 105.769 115.778C105.76 115.797 105.752 115.816 105.746 115.836Z" fill="white"/>
<path d="M273.914 14.7695H242.227V7.45703L273.914 0.144531V14.7695Z" fill="#FFB800"/>
<path d="M207.969 14.7695H237.219V7.45703L205.531 0.144531V14.7695H207.969Z" fill="#FFB800"/>
<path d="M244.75 14.9375H235V10.0625C235 8.76957 235.514 7.52959 236.428 6.61535C237.342 5.70111 238.582 5.1875 239.875 5.1875C241.168 5.1875 242.408 5.70111 243.322 6.61535C244.236 7.52959 244.75 8.76957 244.75 10.0625V14.9375Z" fill="#FFD76F"/>
<path d="M275.79 14.4375H203.148V141.857H275.79V14.4375Z" fill="#00D1FF"/>
<path d="M275.656 71.6368C274.047 70.8575 272.528 69.9789 271.101 69.0009C269.733 68.0814 268.455 67.1073 267.267 66.0787L266.839 65.6988C260.539 60.059 256.404 52.8411 253.692 45.9564C256.859 32.5727 260.026 21.2346 262.01 14.4433H261.627C259.653 21.2112 256.561 32.298 253.463 45.372C253.032 44.2557 252.642 43.1511 252.283 42.064C249.52 33.5878 247.942 24.1346 247.672 14.4433H247.33C247.603 24.2116 249.193 33.7401 251.975 42.2861C252.392 43.5524 252.836 44.7895 253.305 45.9973C252.495 49.4338 251.684 53.0106 250.911 56.6575C250.07 60.5616 249.225 64.6994 248.418 68.9834C247.734 72.642 247.05 76.4116 246.448 80.2397L246.325 80.9878C246.301 81.1515 246.274 81.3151 246.25 81.4787C245.819 84.1828 245.42 86.8985 245.052 89.6258C243.554 89.5168 242.032 89.4369 240.487 89.3862H240.015C238.968 89.3551 237.929 89.3414 236.899 89.3453H236.557C235.257 89.3453 233.975 89.3706 232.709 89.4213H231.871H231.502C228.684 89.5499 225.964 89.7603 223.389 90.035C222.577 87.5452 221.825 85.077 221.132 82.6301C221.07 82.4255 221.012 82.2151 220.954 82.0106C220.941 81.9728 220.93 81.9338 220.92 81.8937L220.807 81.4846C219.634 77.3058 218.58 73.1212 217.636 68.9892C215.746 60.6763 214.157 52.1722 212.879 43.5251C214.988 39.4759 216.742 34.9242 218.084 30.0129C219.446 25.0282 220.487 19.8059 221.19 14.4375H220.848C220.15 19.7269 219.118 24.871 217.77 29.7791C216.477 34.5188 214.797 38.9207 212.78 42.853C211.394 33.5085 210.378 24.0152 209.739 14.4375H209.397C210.045 24.1939 211.082 33.8634 212.499 43.379C211.735 44.8168 210.916 46.166 210.047 47.4175C209.89 47.6454 209.729 47.8734 209.565 48.0955C207.633 50.7544 205.471 52.882 203.155 54.4016V55.0269C205.388 53.5868 207.483 51.5898 209.373 49.1007C209.537 48.8903 209.715 48.6682 209.859 48.452C210.832 47.1079 211.746 45.6449 212.595 44.0745C213.852 52.5444 215.409 60.8763 217.257 69.0243C218.194 73.1505 219.244 77.3409 220.414 81.5197C220.472 81.7359 220.533 81.9521 220.595 82.1684C220.656 82.3846 220.684 82.484 220.732 82.6418C220.779 82.7996 220.848 83.0509 220.906 83.2554C221.59 85.5932 222.274 87.8725 222.989 90.0992C221.279 90.2863 219.639 90.4908 218.071 90.7129L217.629 90.7772C211.005 91.7298 205.83 92.9221 203.148 93.6059V94.1903C205.768 93.5241 210.851 92.3435 217.373 91.3967L217.818 91.3266C219.528 91.087 221.306 90.859 223.174 90.6603C224.759 95.5497 226.508 100.278 228.413 104.821C228.495 105.02 228.577 105.219 228.666 105.406C229.955 108.457 231.3 111.357 232.702 114.108C234.948 118.553 237.392 122.692 240.015 126.487C240.797 127.62 241.595 128.715 242.409 129.771C242.717 130.174 243.028 130.566 243.339 130.94C243.356 131.121 243.373 131.302 243.394 131.484C243.414 131.665 243.435 131.881 243.459 132.068C243.607 133.424 243.782 134.745 243.985 136.03C242.884 135.329 241.796 134.663 240.723 134.032L240.223 133.745L240.018 133.623C237.487 132.161 235.042 130.887 232.706 129.777C229.333 128.176 226.207 126.925 223.351 125.937C216.703 123.592 209.955 122.163 203.172 121.665V122.249C209.937 122.744 216.666 124.169 223.297 126.51C226.153 127.503 229.32 128.766 232.719 130.385C234.97 131.454 237.319 132.676 239.751 134.073L240.032 134.236L240.251 134.365C241.516 135.101 242.804 135.88 244.115 136.703C244.215 137.287 244.324 137.907 244.457 138.497C244.687 139.666 244.94 140.776 245.22 141.857H245.596C245.295 140.724 245.025 139.52 244.782 138.31C244.693 137.866 244.611 137.416 244.533 136.96C246.813 138.433 249.138 140.065 251.51 141.857H252.344C249.649 139.777 246.995 137.918 244.413 136.258C244.174 134.821 243.975 133.336 243.811 131.805C243.794 131.671 243.78 131.536 243.767 131.396C243.838 131.489 243.914 131.577 243.989 131.665C247.28 135.681 250.808 139.097 254.516 141.857H255.515C251.608 139.045 247.892 135.518 244.43 131.337L244.109 130.946L243.667 130.396C243.16 124.384 243.054 118.292 243.353 112.238C243.353 112.01 243.353 111.776 243.38 111.542C243.537 108.153 243.787 104.687 244.112 101.198C244.143 100.841 244.177 100.479 244.215 100.117C244.519 96.9781 244.899 93.8104 245.299 90.6545C245.316 90.4967 245.34 90.333 245.36 90.1694L245.791 90.2044C247.624 90.3564 249.492 90.5668 251.38 90.8356L251.968 90.9233L252.372 90.9876C259.838 92.1565 267.595 94.3423 274.723 98.2113L275.184 98.4567L275.68 98.7431V98.0535L274.931 97.6385L274.473 97.3872C273.789 97.021 273.083 96.6645 272.356 96.3177C265.906 93.3402 259.311 91.3684 252.652 90.4265L252.269 90.3681L251.585 90.2629L251.014 90.1811C249.509 89.9785 247.976 89.809 246.414 89.6726L245.73 89.6142H245.449C245.812 86.914 246.209 84.2256 246.626 81.5606C246.627 81.5333 246.627 81.506 246.626 81.4787C246.66 81.2567 246.698 81.0346 246.732 80.8125C247.375 76.7857 248.073 72.8232 248.784 68.9834C249.577 64.7696 250.409 60.7019 251.236 56.8621C251.995 53.3554 252.775 49.8955 253.555 46.5818C256.367 53.5934 260.021 59.5008 264.274 63.9104C265.149 64.83 266.062 65.6988 267.01 66.5171L267.438 66.8794C268.313 67.6236 269.213 68.321 270.136 68.9717C271.941 70.2486 273.789 71.3395 275.67 72.2387L275.79 72.2972V71.666L275.656 71.6368ZM244.964 90.2921C244.929 90.5434 244.895 90.8006 244.864 91.0577C244.454 94.2196 244.095 97.3872 243.797 100.537C243.76 100.876 243.729 101.209 243.702 101.543C243.38 105.049 243.137 108.48 242.987 111.864C242.987 112.098 242.987 112.331 242.959 112.565C242.689 118.362 242.784 124.191 243.243 129.952C242.133 128.538 241.057 127.071 240.015 125.551C237.397 121.727 234.957 117.561 232.716 113.091C231.324 110.333 230.024 107.504 228.813 104.64L228.56 104.056C226.756 99.735 225.092 95.2475 223.577 90.6136C226.057 90.3564 228.666 90.1518 231.368 90.0291H231.738L232.716 89.994C233.968 89.9473 235.234 89.9239 236.516 89.9239H236.858C237.904 89.9239 238.959 89.9375 240.021 89.9648H240.487C241.953 90.0116 243.452 90.0914 244.984 90.2044C244.976 90.2328 244.969 90.2621 244.964 90.2921Z" fill="white"/>
<path d="M242.443 14.4375H237.68V141.857H242.443V14.4375Z" fill="#FFD76F"/>
<path d="M343.18 90.5195H260.305V149.02H343.18V90.5195Z" fill="#C1272D"/>
<path d="M306.244 149.055C306.754 147.445 307.329 145.926 307.968 144.499C308.57 143.131 309.207 141.853 309.88 140.665L310.129 140.237C313.818 133.938 318.54 129.803 323.044 127.09C331.8 130.257 339.217 133.424 343.66 135.408L343.66 135.025C339.233 133.052 331.98 129.96 323.427 126.861C324.157 126.43 324.879 126.04 325.591 125.681C331.136 122.919 337.32 121.341 343.66 121.071L343.66 120.729C337.27 121.002 331.036 122.591 325.445 125.373C324.617 125.791 323.808 126.234 323.017 126.704C320.769 125.893 318.429 125.083 316.043 124.31C313.489 123.468 310.782 122.624 307.98 121.816C305.586 121.132 303.12 120.448 300.616 119.846L300.126 119.723C300.019 119.699 299.912 119.672 299.805 119.648C298.036 119.217 296.26 118.818 294.475 118.451C294.547 116.953 294.599 115.431 294.632 113.885L294.632 113.413C294.653 112.366 294.661 111.328 294.659 110.297L294.659 109.955C294.659 108.656 294.642 107.373 294.609 106.108L294.609 105.27L294.609 104.9C294.525 102.082 294.387 99.3629 294.208 96.7875C295.837 95.9758 297.451 95.2233 299.052 94.5302C299.186 94.4686 299.324 94.4105 299.457 94.3523C299.482 94.3396 299.508 94.3282 299.534 94.3181L299.801 94.2053C302.535 93.0321 305.273 91.9787 307.976 91.0348C313.414 89.1442 318.978 87.5554 324.635 86.2773C327.284 88.3865 330.262 90.14 333.475 91.4828C336.736 92.8445 340.152 93.8857 343.664 94.5883L343.664 94.2463C340.204 93.5486 336.838 92.5165 333.628 91.1681C330.527 89.8754 327.647 88.1953 325.074 86.1781C331.188 84.7926 337.398 83.7768 343.664 83.1376L343.664 82.7956C337.281 83.4438 330.956 84.4802 324.73 85.8977C323.79 85.1337 322.907 84.3144 322.088 83.4454C321.939 83.2881 321.79 83.1273 321.645 82.9631C319.905 81.0316 318.513 78.8691 317.519 76.5537L317.11 76.5537C318.052 78.7862 319.359 80.8815 320.987 82.7716C321.125 82.9358 321.27 83.1136 321.412 83.2573C322.291 84.2301 323.248 85.1446 324.275 85.9934C318.734 87.2509 313.284 88.8076 307.953 90.6551C305.254 91.5922 302.512 92.6422 299.779 93.812C299.637 93.8701 299.496 93.9317 299.354 93.9932C299.213 94.0548 299.148 94.0821 299.044 94.13C298.941 94.1779 298.777 94.2463 298.643 94.3045C297.114 94.9885 295.622 95.6725 294.166 96.3873C294.043 94.6773 293.91 93.0378 293.764 91.4691L293.722 91.0279C293.099 84.403 292.319 79.2283 291.872 76.5469L291.489 76.5469C291.925 79.1667 292.698 84.2491 293.317 90.7714L293.363 91.216C293.52 92.9261 293.669 94.7046 293.799 96.572C290.6 98.157 287.507 99.9065 284.534 101.812C284.404 101.894 284.274 101.976 284.152 102.065C282.156 103.353 280.259 104.698 278.459 106.101C275.551 108.346 272.844 110.791 270.361 113.413C269.619 114.195 268.903 114.993 268.212 115.807C267.948 116.115 267.692 116.426 267.447 116.737C267.329 116.755 267.21 116.772 267.092 116.792C266.973 116.813 266.832 116.833 266.71 116.857C265.823 117.005 264.958 117.181 264.117 117.384C264.576 116.283 265.012 115.195 265.425 114.121L265.612 113.622L265.693 113.416C266.648 110.885 267.482 108.44 268.208 106.104C269.256 102.732 270.074 99.6057 270.72 96.7499C272.255 90.1013 273.189 83.3533 273.515 76.5708L273.133 76.5708C272.809 83.335 271.877 90.0649 270.346 96.6952C269.696 99.551 268.87 102.718 267.811 106.118C267.111 108.368 266.312 110.718 265.398 113.15L265.291 113.43L265.207 113.649C264.725 114.914 264.215 116.203 263.678 117.514C263.295 117.613 262.89 117.722 262.504 117.856C261.739 118.085 261.013 118.338 260.305 118.619L260.305 118.995C261.047 118.694 261.835 118.424 262.626 118.181C262.917 118.092 263.211 118.01 263.509 117.931C262.546 120.211 261.478 122.537 260.305 124.908L260.305 125.743C261.666 123.048 262.882 120.394 263.968 117.811C264.909 117.572 265.88 117.374 266.882 117.209C266.97 117.192 267.057 117.179 267.149 117.165C267.088 117.237 267.031 117.312 266.973 117.387C264.346 120.678 262.111 124.207 260.305 127.915L260.305 128.913C262.145 125.007 264.452 121.29 267.187 117.828L267.444 117.507L267.803 117.066C271.737 116.558 275.722 116.453 279.683 116.751C279.832 116.751 279.985 116.751 280.137 116.778C282.355 116.936 284.622 117.185 286.905 117.51C287.138 117.541 287.375 117.575 287.612 117.613C289.666 117.917 291.738 118.297 293.802 118.697C293.906 118.714 294.013 118.738 294.12 118.759L294.097 119.19C293.997 121.023 293.86 122.89 293.684 124.778L293.627 125.367L293.585 125.77C292.82 133.236 291.39 140.993 288.859 148.121L288.698 148.583L288.511 149.079L288.962 149.079L289.233 148.33L289.398 147.871C289.637 147.187 289.871 146.482 290.098 145.754C292.045 139.304 293.335 132.709 293.952 126.051L293.99 125.668L294.059 124.983L294.112 124.412C294.245 122.907 294.356 121.374 294.445 119.812L294.483 119.128L294.483 118.848C296.249 119.21 298.008 119.607 299.752 120.024C299.77 120.025 299.787 120.025 299.805 120.024C299.951 120.058 300.096 120.096 300.241 120.13C302.876 120.773 305.468 121.471 307.98 122.182C310.737 122.976 313.398 123.807 315.91 124.635C318.204 125.394 320.467 126.174 322.635 126.954C318.048 129.766 314.183 133.42 311.299 137.672C310.697 138.548 310.129 139.46 309.593 140.409L309.356 140.836C308.869 141.712 308.413 142.611 307.987 143.535C307.152 145.339 306.438 147.187 305.85 149.068L305.812 149.188L306.225 149.188L306.244 149.055ZM294.04 118.362C293.875 118.328 293.707 118.294 293.539 118.263C291.47 117.852 289.398 117.493 287.337 117.196C287.115 117.158 286.897 117.127 286.679 117.1C284.385 116.778 282.141 116.536 279.927 116.385C279.774 116.385 279.621 116.385 279.468 116.358C275.676 116.087 271.863 116.183 268.094 116.642C269.019 115.531 269.979 114.455 270.973 113.413C273.475 110.795 276.2 108.355 279.124 106.114C280.929 104.722 282.779 103.423 284.653 102.212L285.035 101.959C287.862 100.154 290.798 98.4907 293.829 96.9756C293.997 99.4552 294.131 102.065 294.212 104.767L294.212 105.136L294.235 106.114C294.265 107.366 294.28 108.633 294.28 109.914L294.28 110.256C294.28 111.303 294.272 112.357 294.254 113.42L294.254 113.885C294.223 115.351 294.171 116.85 294.097 118.383C294.078 118.375 294.059 118.368 294.04 118.362Z" fill="white"/>
<path d="M302 68.582C307.385 68.582 311.75 64.2168 311.75 58.832C311.75 53.4473 307.385 49.082 302 49.082C296.615 49.082 292.25 53.4473 292.25 58.832C292.25 64.2168 296.615 68.582 302 68.582Z" fill="#FFD76F"/>
<path d="M331.25 71.0195C331.25 58.0203 326.979 44.207 319.062 44.207C311.146 44.207 306.875 58.0203 306.875 71.0195H331.25Z" fill="#FFB800"/>
<path d="M297.125 71.0195C297.125 58.0203 292.854 44.207 284.938 44.207C277.021 44.207 272.75 58.0203 272.75 71.0195H297.125Z" fill="#FFB800"/>
<path d="M345.672 66.1445H257.922V90.5195H345.672V66.1445Z" fill="#FE3D2F"/>
<path d="M311.75 90.5195H292.25V149.02H311.75V90.5195Z" fill="#FFB800"/>
</svg>
