<svg width="39" height="78" viewBox="0 0 39 78" fill="none" xmlns="http://www.w3.org/2000/svg">
<path d="M38.9997 74.7495C38.9997 76.5451 37.5453 77.9994 35.7497 77.9994H3.24998C1.45436 77.9994 0 76.5451 0 74.7495V3.24998C0 1.45436 1.45436 0 3.24998 0H35.7497C37.5453 0 38.9997 1.45436 38.9997 3.24998V74.7495Z" fill="#FFB800"/>
<path d="M19.5015 0H3.24998C1.45436 0 0 1.45599 0 3.24998V74.7495C0 76.5434 1.45436 77.9994 3.24998 77.9994H19.4999L19.5015 0Z" fill="#FFB800"/>
<path d="M4.87496 31.6873C4.87496 35.7254 8.14932 38.9997 12.1874 38.9997C16.2255 38.9997 19.4999 35.7254 19.4999 31.6873V15.4374C19.4999 14.0919 20.5919 12.9999 21.9373 12.9999C23.2828 12.9999 24.3748 14.0919 24.3748 15.4374V21.9373C24.3748 24.1814 26.1932 25.9998 28.4373 25.9998C30.6814 25.9998 32.4998 24.1814 32.4998 21.9373V0H3.24998C1.45599 0 0 1.45599 0 3.24998V27.6248H4.87496V31.6873Z" fill="#FFD76F"/>
<path d="M19.5015 0H3.24998C1.45599 0 0 1.45599 0 3.24998V27.6248H4.87496V31.6873C4.87496 35.7254 8.14931 38.9997 12.1874 38.9997C16.2255 38.9997 19.4999 35.7254 19.4999 31.6873V15.4374C19.4999 15.4341 19.4999 15.4309 19.4999 15.4276L19.5015 0Z" fill="#FFE7A7"/>
</svg>
