<svg width="487" height="270" viewBox="0 0 487 270" fill="none" xmlns="http://www.w3.org/2000/svg">
<path d="M429.915 48.5159V269.101H48V48.5159C48 48.5159 98.0028 26 236.694 26C375.385 26 429.915 48.5159 429.915 48.5159Z" fill="#C1272D"/>
<path d="M449.364 42.6562H397.25V269.101H449.364V42.6562Z" fill="#E8E8E8"/>
<path d="M454.56 257.602H391.875V269.1H454.56V257.602Z" fill="#E8E8E8"/>
<path d="M89.02 42.6562H36.9062V269.101H89.02V42.6562Z" fill="#E8E8E8"/>
<path d="M93.8412 257.602H31.1562V269.1H93.8412V257.602Z" fill="#E8E8E8"/>
<path d="M409.68 258.903H407.64C406.898 258.903 406.156 258.161 406.156 257.419V64.9134C406.156 64.1715 406.898 63.4297 407.64 63.4297H409.68C410.422 63.4297 411.164 64.1715 411.164 64.9134V257.419C411.164 258.346 410.422 258.903 409.68 258.903Z" fill="#C5C9D6"/>
<path d="M424.516 258.903H422.476C421.734 258.903 420.992 258.161 420.992 257.419V64.9134C420.992 64.1715 421.734 63.4297 422.476 63.4297H424.516C425.258 63.4297 426 64.1715 426 64.9134V257.419C426 258.346 425.258 258.903 424.516 258.903Z" fill="#C5C9D6"/>
<path d="M439.352 258.903H437.312C436.57 258.903 435.828 258.161 435.828 257.419V64.9134C435.828 64.1715 436.57 63.4297 437.312 63.4297H439.352C440.094 63.4297 440.835 64.1715 440.835 64.9134V257.419C440.835 258.346 440.279 258.903 439.352 258.903Z" fill="#C5C9D6"/>
<path d="M6.11719 9.45703V18.9154L29.2995 49.7015H456.781L480.149 18.9154V9.45703H6.11719Z" fill="#E8E8E8"/>
<path d="M486.272 0H0V9.64383H486.272V0Z" fill="#E8E8E8"/>
<path d="M480.149 9.27344H6.11719V12.6117H480.149V9.27344Z" fill="#C5C9D6"/>
<path d="M49.3284 258.903H47.2884C46.5465 258.903 45.8047 258.161 45.8047 257.419V64.9134C45.8047 64.1715 46.5465 63.4297 47.2884 63.4297H49.3284C50.0702 63.4297 50.8121 64.1715 50.8121 64.9134V257.419C50.8121 258.346 50.0702 258.903 49.3284 258.903Z" fill="#C5C9D6"/>
<path d="M64.1643 258.903H62.1243C61.3825 258.903 60.6406 258.161 60.6406 257.419V64.9134C60.6406 64.1715 61.3825 63.4297 62.1243 63.4297H64.1643C64.9062 63.4297 65.648 64.1715 65.648 64.9134V257.419C65.648 258.346 64.9062 258.903 64.1643 258.903Z" fill="#C5C9D6"/>
<path d="M79.0003 258.903H76.9602C76.2184 258.903 75.4766 258.161 75.4766 257.419V64.9134C75.4766 64.1715 76.2184 63.4297 76.9602 63.4297H79.0003C79.7421 63.4297 80.4839 64.1715 80.4839 64.9134V257.419C80.4839 258.346 79.9276 258.903 79.0003 258.903Z" fill="#C5C9D6"/>
<path d="M89.02 49.7031H36.9062V54.1541H89.02V49.7031Z" fill="#C5C9D6"/>
<path d="M449.364 49.7031H397.25V54.1541H449.364V49.7031Z" fill="#C5C9D6"/>
</svg>
